<?xml version="1.0" encoding="UTF-8"?> <svg xmlns="http://www.w3.org/2000/svg" width="232.156" height="40.094" viewBox="0 0 232.156 40.094"><defs><style> .cls-1 { fill: #fff; fill-rule: evenodd; } </style></defs><path id="Orthopedic." class="cls-1" d="M276.677,61.54a2.808,2.808,0,0,1-2.18.9,2.88,2.88,0,0,1-2.22-.84,3.337,3.337,0,0,1-.78-2.36,3.282,3.282,0,0,1,.82-2.3,2.805,2.805,0,0,1,2.18-.9,2.92,2.92,0,0,1,2.22.82,3.324,3.324,0,0,1,.78,2.38A3.286,3.286,0,0,1,276.677,61.54ZM257.1,57.16a5.738,5.738,0,0,0,3.119.88,6.12,6.12,0,0,0,2.021-.34,7.11,7.11,0,0,0,1.86-.98,8.4,8.4,0,0,0,1.639-1.6l2.72,3.32a9.8,9.8,0,0,1-3.74,2.86,11.827,11.827,0,0,1-5.02,1.1,10.006,10.006,0,0,1-5.319-1.44,10.3,10.3,0,0,1-3.72-3.92,12.209,12.209,0,0,1,0-11.2,10.3,10.3,0,0,1,3.72-3.92,10.006,10.006,0,0,1,5.319-1.44,12.075,12.075,0,0,1,5.16,1.08,8.528,8.528,0,0,1,3.6,3l-2.72,3.28a6.841,6.841,0,0,0-1.52-1.52,8.3,8.3,0,0,0-1.96-1.08,5.934,5.934,0,0,0-5.22.46,6.114,6.114,0,0,0-2.18,2.36,7.073,7.073,0,0,0-.8,3.38,6.81,6.81,0,0,0,.821,3.36A6.385,6.385,0,0,0,257.1,57.16ZM241.5,36.44a3.308,3.308,0,0,1-2.3-.74,2.681,2.681,0,0,1-.82-2.1,2.743,2.743,0,0,1,.84-2.08,3.171,3.171,0,0,1,2.28-.8,3.377,3.377,0,0,1,2.34.74,2.738,2.738,0,0,1,.82,2.14,2.694,2.694,0,0,1-.84,2.04A3.227,3.227,0,0,1,241.5,36.44ZM227.712,59.28a7.627,7.627,0,0,1-1.494,1.44,8.761,8.761,0,0,1-2.42,1.22,8.875,8.875,0,0,1-2.82.46,9.113,9.113,0,0,1-5.02-1.42,10.1,10.1,0,0,1-3.52-3.88,11.928,11.928,0,0,1-1.3-5.66,12.113,12.113,0,0,1,1.28-5.64,9.929,9.929,0,0,1,3.5-3.9,9.459,9.459,0,0,1,7.96-.94,9.345,9.345,0,0,1,2.54,1.3,7.685,7.685,0,0,1,1.2,1.106V32.4h4.92V62h-4.76Zm-0.674-11.34a5.783,5.783,0,0,0-2.06-2.4,5.8,5.8,0,0,0-6.08,0,5.776,5.776,0,0,0-2.06,2.4,8.694,8.694,0,0,0,0,7.02,5.934,5.934,0,0,0,2.06,2.4,5.691,5.691,0,0,0,6.08,0,5.941,5.941,0,0,0,2.06-2.4A8.694,8.694,0,0,0,227.038,47.94Zm-34.875,4.62a6.571,6.571,0,0,0,.755,2.28,5.809,5.809,0,0,0,2.44,2.34,7.92,7.92,0,0,0,3.7.82,7.478,7.478,0,0,0,2.72-.48,9.531,9.531,0,0,0,2.68-1.72l2.44,3.4a10.741,10.741,0,0,1-2.46,1.7,14.575,14.575,0,0,1-2.9,1.1,11.782,11.782,0,0,1-3,.4,11.935,11.935,0,0,1-5.86-1.4,10.188,10.188,0,0,1-3.96-3.82,10.737,10.737,0,0,1-1.42-5.54,12.27,12.27,0,0,1,.8-4.52,10.837,10.837,0,0,1,2.22-3.54,9.761,9.761,0,0,1,3.4-2.32,11.24,11.24,0,0,1,4.34-.82,9.45,9.45,0,0,1,3.88.8,9.754,9.754,0,0,1,3.12,2.18,9.374,9.374,0,0,1,2.02,3.28,11.325,11.325,0,0,1,.66,4.14l-0.04,1.72H192.163ZM202.938,49a4.368,4.368,0,0,0-.8-2.18,4.82,4.82,0,0,0-1.74-1.48,5.081,5.081,0,0,0-2.34-.54,6.6,6.6,0,0,0-3.3.76,4.85,4.85,0,0,0-2.02,2.18,6.419,6.419,0,0,0-.476,1.46h10.676V49Zm-23.78,11.94a8.78,8.78,0,0,1-4.9,1.42,8.986,8.986,0,0,1-3.54-.72,9.136,9.136,0,0,1-2.88-1.88c-0.107-.105-0.164-0.217-0.26-0.324V70.8h-4.96V40.92h4.84l0.047,2.8a5.455,5.455,0,0,1,.553-0.7,8.945,8.945,0,0,1,6.12-2.46,9.015,9.015,0,0,1,4.98,1.4,9.814,9.814,0,0,1,3.44,3.84,13.208,13.208,0,0,1,0,11.26A9.923,9.923,0,0,1,179.158,60.94Zm-0.82-12.88a5.6,5.6,0,0,0-2.04-2.3,5.539,5.539,0,0,0-3.04-.84,5.62,5.62,0,0,0-3.06.82,5.765,5.765,0,0,0-2.06,2.3,7.985,7.985,0,0,0,0,6.8,5.908,5.908,0,0,0,2.06,2.32,5.884,5.884,0,0,0,6.06,0,5.708,5.708,0,0,0,2.06-2.32A8.237,8.237,0,0,0,178.338,48.06ZM152.5,60.98a11.831,11.831,0,0,1-11.24,0,10.469,10.469,0,0,1-3.92-3.9,11.765,11.765,0,0,1,0-11.28,10.48,10.48,0,0,1,3.92-3.9,11.831,11.831,0,0,1,11.24,0,10.342,10.342,0,0,1,3.9,3.9,11.911,11.911,0,0,1,0,11.28A10.332,10.332,0,0,1,152.5,60.98Zm-0.42-12.94a6.109,6.109,0,0,0-2.12-2.34,5.547,5.547,0,0,0-3.06-.86,5.742,5.742,0,0,0-3.1.86,5.816,5.816,0,0,0-2.14,2.36,7.369,7.369,0,0,0-.76,3.38,7.243,7.243,0,0,0,.76,3.36,5.983,5.983,0,0,0,2.14,2.36,5.641,5.641,0,0,0,3.1.88,5.45,5.45,0,0,0,3.06-.88,6.254,6.254,0,0,0,2.12-2.36,6.783,6.783,0,0,0,.74-3.36A6.876,6.876,0,0,0,152.079,48.04Zm-25.66,1.44a6.984,6.984,0,0,0-.44-2.66,3.031,3.031,0,0,0-1.36-1.56,4.359,4.359,0,0,0-2.24-.46,5.569,5.569,0,0,0-1.98.34,4.658,4.658,0,0,0-1.56.96,4.707,4.707,0,0,0-1.04,1.42,4.041,4.041,0,0,0-.38,1.76V62H112.5V32.4h4.88V43.863a6.846,6.846,0,0,1,.64-0.763,9.01,9.01,0,0,1,2.76-1.9,7.913,7.913,0,0,1,3.28-.72,7.769,7.769,0,0,1,4.02.96,5.939,5.939,0,0,1,2.44,2.88,12.274,12.274,0,0,1,.82,4.8V62h-4.92V49.48ZM103.739,62h-4.92V45.48h-4.16V40.92h4.16V35.56h4.92v5.36h4.6v4.56h-4.6V62ZM89.66,45.88a5.287,5.287,0,0,0-1.28-.16,4.838,4.838,0,0,0-1.9.38,4.923,4.923,0,0,0-2.64,2.64,5.14,5.14,0,0,0-.38,2.02V62H78.5V40.92h4.84l0.043,3.609a7.642,7.642,0,0,1,.877-1.289,8.237,8.237,0,0,1,2.5-2.02,6.364,6.364,0,0,1,2.98-.74,6.836,6.836,0,0,1,1.3.12,5.79,5.79,0,0,1,1.02.28l-1.32,5.4A4.612,4.612,0,0,0,89.66,45.88ZM69.38,58.28a13.184,13.184,0,0,1-4.44,3.04,14.955,14.955,0,0,1-11.16,0,13.464,13.464,0,0,1-7.4-7.6,16.471,16.471,0,0,1,0-11.52,13.464,13.464,0,0,1,7.4-7.6,14.955,14.955,0,0,1,11.16,0,13.192,13.192,0,0,1,4.44,3.04,14.026,14.026,0,0,1,2.92,4.58,16.305,16.305,0,0,1,0,11.46A13.964,13.964,0,0,1,69.38,58.28ZM67.4,44.2a9.728,9.728,0,0,0-1.82-3.02,7.965,7.965,0,0,0-2.74-2,9.05,9.05,0,0,0-6.98,0,8.02,8.02,0,0,0-2.76,1.98,9.179,9.179,0,0,0-1.8,3,11.542,11.542,0,0,0,0,7.58,9.124,9.124,0,0,0,1.8,3.02,8,8,0,0,0,2.76,1.98,9.05,9.05,0,0,0,6.98,0,7.947,7.947,0,0,0,2.74-2,9.714,9.714,0,0,0,1.82-3.02A11.04,11.04,0,0,0,67.4,44.2ZM244.018,62H239.1V40.92h4.92V62Z" transform="translate(-45.344 -30.719)"></path></svg> 